<?xml version="1.0" standalone="no"?>
<!DOCTYPE svg PUBLIC "-//W3C//DTD SVG 20010904//EN"
 "http://www.w3.org/TR/2001/REC-SVG-20010904/DTD/svg10.dtd">
<svg version="1.0" xmlns="http://www.w3.org/2000/svg"
 width="512.000000pt" height="512.000000pt" viewBox="0 0 512.000000 512.000000"
 preserveAspectRatio="xMidYMid meet">
  <rect x="16" y="16" width="470" height="470" fill="#fff" />
  <g transform="translate(0.000000,512.000000) scale(0.100000,-0.100000)" fill="#2185d0" stroke="none">
    <path d="M360 5101 c-91 -29 -142 -61 -211 -130 -70 -70 -106 -130 -133 -220
      -14 -50 -16 -255 -16 -2191 0 -2343 -4 -2173 58 -2295 32 -64 143 -175 207
      -207 122 -62 -48 -58 2295 -58 2343 0 2173 -4 2295 58 64 32 175 143 207 207
      62 122 58 -48 58 2295 0 2343 4 2173 -58 2295 -32 64 -143 175 -207 207 -122
      62 49 58 -2299 57 -2024 0 -2144 -1 -2196 -18z m2215 -876 c179 -49 306 -166
      367 -340 31 -86 55 -224 64 -372 l7 -113 85 91 c170 181 332 264 537 276 182
      11 337 -38 435 -137 130 -129 187 -374 161 -689 -20 -241 -31 -294 -223 -1116
      -38 -165 -43 -283 -13 -335 25 -42 74 -62 120 -49 71 21 233 156 456 380 153
      155 184 176 219 144 48 -44 57 -219 17 -325 -64 -171 -224 -370 -397 -497
      -192 -140 -420 -223 -611 -223 -221 0 -380 128 -425 342 -30 140 -7 271 138
      803 225 827 243 1070 80 1092 -174 23 -411 -231 -628 -672 -188 -382 -289
      -801 -256 -1054 16 -121 15 -230 -3 -282 -35 -98 -150 -204 -275 -253 -67 -27
      -188 -33 -231 -12 -71 34 -117 136 -126 278 -11 164 12 274 195 943 186 679
      240 980 221 1240 -12 166 -56 259 -135 285 -52 18 -160 8 -222 -20 -296 -130
      -561 -631 -762 -1436 -67 -269 -67 -274 -32 -459 62 -323 69 -440 32 -551 -33
      -98 -89 -153 -216 -214 -136 -65 -201 -83 -279 -78 -77 5 -124 36 -159 106
      -40 80 -51 153 -50 342 1 282 74 809 209 1510 85 447 107 591 100 674 -15 179
      -76 276 -175 276 -48 0 -94 -24 -213 -112 -115 -85 -159 -107 -214 -108 -68 0
      -96 76 -73 202 23 129 101 241 229 327 143 97 276 140 461 148 173 7 278 -19
      377 -95 79 -60 142 -203 158 -357 14 -140 9 -137 69 -41 77 121 132 191 220
      274 127 120 240 182 396 217 82 19 280 13 365 -10z"
    />
  </g>
</svg>
